<svg width="34" height="29" fill="none" xmlns="http://www.w3.org/2000/svg"><path fill-rule="evenodd" clip-rule="evenodd" d="M8.43 4.214l3.097 15.566 16.81-.989 3.39-14.757H20.052l-11.621.18zm2.606 16.803a.603.603 0 01-.591-.486L7.139 3.911l-2.57-2.704H.605A.604.604 0 11.604 0h4.225c.166 0 .324.068.438.188l2.685 2.826 12.09-.187h12.444a.602.602 0 01.588.74l-3.662 15.935a.602.602 0 01-.552.467l-17.787 1.047-.037.001z" fill="#231F20"/><path fill-rule="evenodd" clip-rule="evenodd" d="M29.428 23.472H11.117a.605.605 0 01-.604-.604v-2.455a.604.604 0 011.208 0v1.85h17.707a.605.605 0 010 1.209zm-15.011 2.807a2.354 2.354 0 11-4.708 0 2.354 2.354 0 014.708 0zm15.855 0a2.354 2.354 0 11-4.708 0 2.354 2.354 0 014.708 0z" fill="#231F20"/></svg>