<svg width="25" height="25" fill="none" xmlns="http://www.w3.org/2000/svg"><path d="M12.54 24.178c-6.6 0-11.949-5.341-11.949-11.93C.592 5.66 5.942.318 12.539.318c6.599 0 11.948 5.342 11.948 11.93-.011 6.584-5.354 11.919-11.948 11.93zm0-22.5c-5.847 0-10.586 4.733-10.586 10.57 0 5.838 4.74 10.57 10.585 10.57 5.847 0 10.586-4.732 10.586-10.57-.007-5.834-4.742-10.562-10.586-10.57z" fill="#212A2F"/><path fill-rule="evenodd" clip-rule="evenodd" d="M12.678 16.893a1.04 1.04 0 01.743 1.77 1.04 1.04 0 01-1.776-.733 1.044 1.044 0 011.033-1.037zm.664-1.386v-.697a2.387 2.387 0 01.132-.834c.085-.229.2-.445.342-.644.148-.212.316-.41.5-.591.184-.19.375-.368.566-.552.19-.184.381-.387.565-.591.188-.2.353-.421.494-.657a3.327 3.327 0 00.506-1.826 3.936 3.936 0 00-.276-1.524 3.158 3.158 0 00-.776-1.117 3.455 3.455 0 00-1.198-.703 4.717 4.717 0 00-1.532-.243 4.302 4.302 0 00-1.685.322c-.49.206-.928.518-1.283.913a4.01 4.01 0 00-.796 1.373 4.645 4.645 0 00-.263 1.701.763.763 0 001.527 0 4.329 4.329 0 01.144-1.162c.085-.34.24-.657.454-.933.21-.273.477-.498.783-.657.348-.16.729-.239 1.112-.23a2.1 2.1 0 011.533.552c.406.413.64.965.658 1.544a2.72 2.72 0 01-.158 1.13 3.173 3.173 0 01-.533.847c-.224.26-.463.505-.717.736-.26.239-.507.493-.737.762a4.384 4.384 0 00-.592.939c-.17.406-.262.84-.27 1.281v.854a.763.763 0 001.526 0" fill="#212A2F"/></svg>